<svg id="Layer_1" data-name="Layer 1" xmlns="http://www.w3.org/2000/svg" viewBox="0 0 1024 1024"><path d="M701.18,573.14c77.33-20.77,149.44-52,215.24-99.31,2,5,4.16,9.38,5.37,13.8,6.7,26,11.39,52.41,11.79,79.21.67,37.8-3.62,74.79-19.7,109.77-4.56,10-9.65,15-22.25,15-50.66-.14-93.82-18.77-132-50.53a267.78,267.78,0,0,1-58.44-68Z" fill="#1d1d1b"/><path d="M937.06,419c-53.87,51.87-188,120-247.94,125.58,8.31-48.38,31.9-87.11,70.77-116.73l-1.21-1.48c-7.91,6.3-16.08,12.34-23.45,19.17-28,26.4-45.17,59-53.48,96.5-.54,2.27-2.68,4.29-4.82,6-5.77-21.31-1.08-40.61,7.63-59.11,11.26-24,29.36-42.48,48.79-59.9a205.56,205.56,0,0,1,18.76-15.15c4.29-2.95,5-6,3.75-10.85-4.42-17.56-6.29-35.12-2.54-53.08,1.47-7.1,3.08-13.8,11.52-16.21,9.65-2.55,18.77-1.75,27.08,3.61,1.2.81,1.07,5.5,0,7.51A119.65,119.65,0,0,0,778,387.12c-.4,3.75,0,7.64,0,11.92,12.46-2.54,24.26-5.36,36-7.37,27.74-4.82,55.49-6.83,83,2C912.54,398.64,926.21,406.68,937.06,419Z" fill="#1d1d1b"/><path d="M290.67,417.54H335c.14,2.41.54,4.56.54,6.7V564c0,3.35.8,6.7-4.29,7.77-26.13,5.63-52.27,10.05-79.07,6.7-31-3.89-49.46-22.25-51.87-53.74-1.88-24.39-1.21-49.05-1.61-73.58-.13-11,0-22,0-33.51H244v7.91c0,27.48,0,55.08.27,82.56,0,5.63,1.34,11.39,2.68,16.89,2.15,9.78,9.38,14.6,18.63,15.68,8,.8,16.22.13,25.06.13Z" fill="#1d1d1b"/><path d="M67.93,575.55H23.7c-.14-2.41-.4-4.55-.4-6.83,0-46.24.13-92.75-.14-139.12,0-5.9,1.88-7.77,7.37-8.84,25.74-5.63,51.6-9.12,77.74-5.23,31.49,4.69,48.65,22.92,50.12,55,1.61,34.17,1.07,68.35,1.34,102.53a8.14,8.14,0,0,1-.67,2.41H114.7v-7.37c0-26.67.13-53.21-.13-79.88a98.82,98.82,0,0,0-2.68-19.7c-1.75-8.18-7.11-13.81-15.28-14.74a144.82,144.82,0,0,0-25.33-.27c-1.21,0-3.22,3.88-3.22,5.89-.27,16.22-.13,32.57-.13,48.92Z" fill="#1d1d1b"/><path d="M585.52,501.17c-8,9.78-16.21,19.43-24.26,29.22-1.74,2-3.08,4.42-5.49,7.64h75.59v37.25H500.69c.13-13.26-2.28-26.13,7.23-37.92,19.17-24,37.4-48.79,56-73.18,1.88-2.55,4-5,7-8.58H504.84V417.54H630.15c0,9.92.67,19.43-.4,28.95-.4,3.48-4.42,6.7-7.1,9.78-12.33,15-24.66,29.89-37.13,44.9Z" fill="#1d1d1b"/><path d="M421.21,370.9v46.24h53.88c0,12.19.13,23.72-.27,35.38,0,.94-3.75,2.68-5.76,2.68-13.14.27-26.14.13-39.27.13h-7.51a21.08,21.08,0,0,0-.94,3.09c.14,19.7-.26,39.53.54,59.23.67,17.7,8.71,24.66,26.54,23.73,8.84-.41,17.55-2.28,26.8-3.62,1.88,9.92,4,20.24,5.63,30.56.27,1.34-1.88,4-3.48,4.55-20.64,8-41.95,9.52-63.4,3.62s-33-21.31-36.05-43a170.83,170.83,0,0,1-1.61-23.32c-.13-41.82,0-83.5-.13-125.31,0-5.63,1.74-7.24,7.24-7.91C395.48,375.46,407.67,373,421.21,370.9Z" fill="#1d1d1b"/><path d="M943.76,452.79c27.21,81.35,27.88,158.55-27.34,229,2.82-5.63,5.77-11.12,8.45-16.75,16.35-33.37,22.25-69,22.25-105.74a329.37,329.37,0,0,0-8.72-76.8c-1.07-4.42-2.14-9-4.42-12.87-3-4.95-2.55-8.17,2.41-11.12,2.55-1.88,5-3.75,7.37-5.76Z" fill="#1d1d1b"/><path d="M293.89,666.15h-4.42V648.46a12.07,12.07,0,0,0-.41-3.08,4.63,4.63,0,0,0-1.07-2,5,5,0,0,0-1.74-1.21,6.72,6.72,0,0,0-2.28-.4,8.37,8.37,0,0,0-4.42,1.21,14.24,14.24,0,0,0-3.49,3.48V666h-4.55V638.54H275l.81,3.89h.13a19.7,19.7,0,0,1,1.61-1.74,7.71,7.71,0,0,1,2-1.48,9.25,9.25,0,0,1,2.41-.94,10.55,10.55,0,0,1,2.82-.4,8.39,8.39,0,0,1,5.09,1.48,10.1,10.1,0,0,1,3.08,4h.13a14.89,14.89,0,0,1,4.16-4,10.84,10.84,0,0,1,5.49-1.48,12.6,12.6,0,0,1,3.09.4,7.75,7.75,0,0,1,2.95,1.48,8.83,8.83,0,0,1,2.27,3.08,12.58,12.58,0,0,1,.94,5v18.36h-4.55V648.46a12.07,12.07,0,0,0-.41-3.08,7,7,0,0,0-1.07-2,5.11,5.11,0,0,0-1.74-1.21,6.81,6.81,0,0,0-2.28-.4,8.37,8.37,0,0,0-4.42,1.21,14.24,14.24,0,0,0-3.49,3.48l-.13,19.7Zm45.57,0-.14-3.89a13.65,13.65,0,0,1-4.82,3.36,14.11,14.11,0,0,1-9.38.4,8.12,8.12,0,0,1-2.95-1.74,6.14,6.14,0,0,1-1.74-2.69,8.81,8.81,0,0,1-.54-3.21,8,8,0,0,1,3.22-6.84c2.14-1.61,5.36-2.54,9.65-2.54h6v-2.55a5.27,5.27,0,0,0-1.61-4.15,7.54,7.54,0,0,0-5-1.61,19.87,19.87,0,0,0-4.83.53,31.14,31.14,0,0,0-4.95,1.61v-4.56c.67-.26,1.34-.4,2.14-.67a14.53,14.53,0,0,1,2.55-.53c.93-.14,1.74-.27,2.68-.4a18.83,18.83,0,0,1,2.81-.14,18,18,0,0,1,4.69.54,9.15,9.15,0,0,1,3.62,1.74,9.83,9.83,0,0,1,2.28,3,11.51,11.51,0,0,1,.8,4.29v20Zm-.54-13.27h-6.43a13.16,13.16,0,0,0-3.22.41,6.91,6.91,0,0,0-2.28,1.07,4.53,4.53,0,0,0-1.2,1.61,6,6,0,0,0-.41,2.14,7,7,0,0,0,.27,1.61,2.79,2.79,0,0,0,.81,1.34,3.5,3.5,0,0,0,1.47.94,6.42,6.42,0,0,0,2.28.4,9,9,0,0,0,4-1.07,20,20,0,0,0,4.69-3.35v-5.1Zm40.61,13.27h-7L359,650.6v15.55h-5V625.27h5v25.07l13-13.27h6.71l-13.68,13.4,14.48,15.68Zm20.1-29.08h4.56l.13,4.69a23.61,23.61,0,0,1,2.55-2.55,8.91,8.91,0,0,1,2.28-1.61,6.52,6.52,0,0,1,2.28-.8,15.1,15.1,0,0,1,2.54-.27,8.74,8.74,0,0,1,6.84,2.68c1.47,1.75,2.28,4.43,2.28,8v18.9h-5V647.66a8.06,8.06,0,0,0-1.21-5,4.48,4.48,0,0,0-3.75-1.61,8.7,8.7,0,0,0-1.88.27,7.8,7.8,0,0,0-1.87.94,8.62,8.62,0,0,0-2,1.87,30.91,30.91,0,0,0-2.55,3v19.3h-5l-.27-29.35Zm53.48,4.15a6.78,6.78,0,0,1,1.2,2.42,10.29,10.29,0,0,1,.41,2.94,10.86,10.86,0,0,1-.81,4.16,10.67,10.67,0,0,1-2.28,3.22,9.87,9.87,0,0,1-3.62,2,13.72,13.72,0,0,1-4.55.8,13.37,13.37,0,0,1-3.35-.4,8.58,8.58,0,0,1-2.55-.94,9.75,9.75,0,0,0-.94,1.47,3.58,3.58,0,0,0-.4,1.61,2.13,2.13,0,0,0,1.07,1.88,5,5,0,0,0,2.82.8l7.64.27a20.54,20.54,0,0,1,4,.54,11.2,11.2,0,0,1,3.21,1.47,5.49,5.49,0,0,1,2,2.28,6.34,6.34,0,0,1,.81,3.22,7.89,7.89,0,0,1-.81,3.61,8.07,8.07,0,0,1-2.54,3.09,16.76,16.76,0,0,1-4.42,2.14,26.31,26.31,0,0,1-6.44.81,30.74,30.74,0,0,1-6-.54,10.57,10.57,0,0,1-4-1.61,6.29,6.29,0,0,1-3.08-5.36,7.09,7.09,0,0,1,.94-3.75,11,11,0,0,1,3.08-3.08,4.32,4.32,0,0,1-1.21-.94,3.63,3.63,0,0,1-.94-1.08,4,4,0,0,1-.53-1.34,4.34,4.34,0,0,1-.14-1.34,6.49,6.49,0,0,1,.94-3.48,15.12,15.12,0,0,1,2.15-3,7,7,0,0,1-.94-1.2,6.21,6.21,0,0,1-.67-1.34,3.58,3.58,0,0,1-.4-1.61,9.72,9.72,0,0,1-.14-2,9.72,9.72,0,0,1,3.08-7.37,9.83,9.83,0,0,1,3.62-2,14,14,0,0,1,4.69-.8,10.45,10.45,0,0,1,2,.13c.54.14,1.21.27,1.75.41h10.58v4.15l-5.22-.27Zm-17.56,29.09a3,3,0,0,0,2.15,2.94,14.87,14.87,0,0,0,6,.94,20.3,20.3,0,0,0,4-.4,16.83,16.83,0,0,0,2.68-1.07,4.22,4.22,0,0,0,1.47-1.61,4.28,4.28,0,0,0,.4-1.88,2.71,2.71,0,0,0-1.47-2.54,10.1,10.1,0,0,0-4.42-.94l-7.64-.27-1.61,1.21a7.58,7.58,0,0,0-.94,1.2,5.12,5.12,0,0,0-.54,1.21c0,.4-.13.8-.13,1.21Zm1.61-23.73a8.33,8.33,0,0,0,.4,2.55,5.09,5.09,0,0,0,1.21,2,5,5,0,0,0,2,1.21,7.73,7.73,0,0,0,2.54.4,5.88,5.88,0,0,0,2.68-.54,5.08,5.08,0,0,0,2-1.34,5,5,0,0,0,1.21-2,6.72,6.72,0,0,0,.4-2.28,8.31,8.31,0,0,0-.4-2.54,4.87,4.87,0,0,0-3.22-3.22,7.69,7.69,0,0,0-2.54-.4,5.88,5.88,0,0,0-2.68.54,5.08,5.08,0,0,0-2,1.34,5,5,0,0,0-1.21,2A6.19,6.19,0,0,0,437.16,646.58Zm61.78,11.53a7,7,0,0,1-.53,2.81,7.58,7.58,0,0,1-1.48,2.15,10.51,10.51,0,0,1-2,1.61,14.9,14.9,0,0,1-2.54,1.07,20.58,20.58,0,0,1-2.82.67,9.83,9.83,0,0,1-2.81.13c-1.74,0-3.62-.13-5.36-.26a31.23,31.23,0,0,1-4.83-.81v-4.69a31,31,0,0,0,5.09,1.07,30.72,30.72,0,0,0,5,.4,12.16,12.16,0,0,0,5.36-.93,3.13,3.13,0,0,0,1.75-2.82,4.08,4.08,0,0,0-.27-1.34,2.92,2.92,0,0,0-.94-1.2,7.36,7.36,0,0,0-2.28-1.21,30.46,30.46,0,0,0-4.15-1.34,36.88,36.88,0,0,1-3.62-1.34,10.06,10.06,0,0,1-2.82-1.74,7.07,7.07,0,0,1-2.54-5.63,8.86,8.86,0,0,1,.53-2.68,6.61,6.61,0,0,1,1.88-2.68,9.59,9.59,0,0,1,3.62-2,17.12,17.12,0,0,1,5.76-.81,36.07,36.07,0,0,1,3.75.14,39.31,39.31,0,0,1,4.29.67v4.42a24.71,24.71,0,0,0-4.55-.8,31.81,31.81,0,0,0-3.76-.27,24.82,24.82,0,0,0-3.21.27,5.21,5.21,0,0,0-2,.8,3.17,3.17,0,0,0,0,5.36,7.36,7.36,0,0,0,2.28,1.21,27,27,0,0,0,3.88,1.2,23.23,23.23,0,0,1,4.29,1.61,7.85,7.85,0,0,1,2.81,1.88,8.45,8.45,0,0,1,1.61,2.28,5.37,5.37,0,0,1,.67,2.81Zm34.18-8v1.74a4.69,4.69,0,0,1-.13,1.34H512.61a9.32,9.32,0,0,0,2.55,6.84,10.15,10.15,0,0,0,7.24,2.41,15.46,15.46,0,0,0,2.54-.14c.81-.13,1.75-.13,2.55-.26s1.61-.27,2.28-.41a10.66,10.66,0,0,0,2-.53v4.15a46.86,46.86,0,0,1-4.69.94,35.82,35.82,0,0,1-5.36.4,17.44,17.44,0,0,1-6.44-1.07,9.91,9.91,0,0,1-4.42-3,12.31,12.31,0,0,1-2.54-4.69,24.4,24.4,0,0,1-.81-6.3,16.77,16.77,0,0,1,.94-5.76A16.53,16.53,0,0,1,511,641a12.59,12.59,0,0,1,9.78-4.56,14.56,14.56,0,0,1,5.36.94A9.67,9.67,0,0,1,530,640a12.3,12.3,0,0,1,2.41,4.29,28.2,28.2,0,0,1,.67,5.76Zm-5.23-.81a10,10,0,0,0-.4-3.48A7.08,7.08,0,0,0,526,643a8.33,8.33,0,0,0-2.42-1.88,9.35,9.35,0,0,0-3.35-.67,7.36,7.36,0,0,0-3,.67,6,6,0,0,0-2.27,1.74,9.61,9.61,0,0,0-1.61,2.82,16.1,16.1,0,0,0-.81,3.61Zm13.27-12.19h4.56l.13,4.69a23.61,23.61,0,0,1,2.55-2.55,8.91,8.91,0,0,1,2.28-1.61,6.54,6.54,0,0,1,2.27-.8,15.34,15.34,0,0,1,2.55-.27,8.76,8.76,0,0,1,6.84,2.68c1.6,1.75,2.27,4.43,2.27,8v18.9h-5V647.66a8.06,8.06,0,0,0-1.21-5,4.48,4.48,0,0,0-3.75-1.61,8.7,8.7,0,0,0-1.88.27,8.06,8.06,0,0,0-1.88.94,9,9,0,0,0-2,1.87,32.45,32.45,0,0,0-2.54,3v19.3h-5l-.27-29.35Zm55.62,21a6.82,6.82,0,0,1-.54,2.81,7.55,7.55,0,0,1-1.47,2.15,8.19,8.19,0,0,1-2.14,1.61,15,15,0,0,1-2.55,1.07,20.58,20.58,0,0,1-2.82.67,20.26,20.26,0,0,1-2.81.13c-1.88,0-3.62-.13-5.5-.26a31.3,31.3,0,0,1-4.82-.81v-4.69a31,31,0,0,0,5.09,1.07,30.72,30.72,0,0,0,5,.4,12.16,12.16,0,0,0,5.36-.93,3.14,3.14,0,0,0,1.74-2.82,4.09,4.09,0,0,0-.26-1.34,2.92,2.92,0,0,0-.94-1.2,7.47,7.47,0,0,0-2.28-1.21,30.46,30.46,0,0,0-4.15-1.34,36.88,36.88,0,0,1-3.62-1.34,9.92,9.92,0,0,1-2.82-1.74,7.07,7.07,0,0,1-2.54-5.63,8.57,8.57,0,0,1,.53-2.68,6.42,6.42,0,0,1,1.88-2.68,9.59,9.59,0,0,1,3.62-2,17.09,17.09,0,0,1,5.76-.81,36.07,36.07,0,0,1,3.75.14,39.31,39.31,0,0,1,4.29.67v4.42a24.67,24.67,0,0,0-4.56-.8,31.32,31.32,0,0,0-3.61-.27,24.83,24.83,0,0,0-3.22.27,5.27,5.27,0,0,0-2,.8,2.63,2.63,0,0,0-1.21,1.21,2.66,2.66,0,0,0-.4,1.47,3.1,3.1,0,0,0,1.48,2.68,7.42,7.42,0,0,0,2.27,1.21,27.62,27.62,0,0,0,3.89,1.2,23.5,23.5,0,0,1,4.29,1.61,7.85,7.85,0,0,1,2.81,1.88,7,7,0,0,1,1.61,2.28,4.69,4.69,0,0,1,.94,2.81Zm34-8v1.74a4.69,4.69,0,0,1-.13,1.34H610.32a9.27,9.27,0,0,0,2.54,6.84,10.15,10.15,0,0,0,7.24,2.41,15.64,15.64,0,0,0,2.55-.14c.8-.13,1.74-.13,2.54-.26s1.61-.27,2.28-.41a10.66,10.66,0,0,0,2-.53v4.15a46.3,46.3,0,0,1-4.69.94,35.82,35.82,0,0,1-5.36.4,17.42,17.42,0,0,1-6.43-1.07,9.88,9.88,0,0,1-4.43-3,12.31,12.31,0,0,1-2.54-4.69,24.4,24.4,0,0,1-.81-6.3A17.45,17.45,0,0,1,608.71,641a10.85,10.85,0,0,1,4.15-3.22,11.53,11.53,0,0,1,5.63-1.21,14.56,14.56,0,0,1,5.36.94,9.73,9.73,0,0,1,3.89,2.68,12.23,12.23,0,0,1,2.41,4.29,15.62,15.62,0,0,1,.67,5.63Zm-5.23-.81a7.52,7.52,0,0,0-.4-3.48,7.08,7.08,0,0,0-1.47-2.81,8.42,8.42,0,0,0-2.41-1.88,9.43,9.43,0,0,0-3.35-.67,7,7,0,0,0-5.37,2.41,9.58,9.58,0,0,0-1.6,2.82,15.57,15.57,0,0,0-.81,3.61Z" fill="#1d1d1b"/><path d="M391.19,629.7a3,3,0,0,1-6-.4,3,3,0,0,1,2.95-2.82A3.24,3.24,0,0,1,391.19,629.7Z" fill="#1d1d1b"/><path d="M386,638.68h4.56v27.47H386Z" fill="#1d1d1b"/><circle id="circle3" cx="974.6" cy="385.04" r="26.24" fill="none" stroke="#1d1d1b" stroke-miterlimit="10"/><path id="text3175" d="M973,382.66a5.38,5.38,0,0,0,3.55-.93,3.76,3.76,0,0,0,1.08-3,3.68,3.68,0,0,0-1.08-3,5.5,5.5,0,0,0-3.55-.91h-3.31v7.85Zm-3.31,5.44v11.57h-7.89V369.1h12q6,0,8.85,2t2.82,6.41a8,8,0,0,1-1.47,5,8.4,8.4,0,0,1-4.4,2.87,5.62,5.62,0,0,1,2.88,1.68,15,15,0,0,1,2.6,3.93l4.28,8.68H981l-3.73-7.6a8.42,8.42,0,0,0-2.29-3.13,5.08,5.08,0,0,0-3.07-.84Z" fill="#1d1d1b"/></svg>